<svg width="67" height="51" viewBox="0 0 67 51" fill="none" xmlns="http://www.w3.org/2000/svg">
<path fill-rule="evenodd" clip-rule="evenodd" d="M15.0186 1.88572C17.9821 0.641523 21.1615 0 24.3744 0C27.5873 0 30.7667 0.641522 33.7303 1.88572C36.6936 3.12984 39.3806 4.95103 41.64 7.24107C43.8992 9.53093 45.6869 12.2447 46.905 15.2254C48.123 18.2059 48.7488 21.3974 48.7488 24.6186C48.7488 28.1393 45.8947 30.9934 42.374 30.9934C38.8533 30.9934 35.9991 28.1393 35.9991 24.6186C35.9991 23.0481 35.6939 21.495 35.1028 20.0486C34.5117 18.6024 33.6477 17.2939 32.5641 16.1955C31.4806 15.0974 30.1991 14.231 28.7948 13.6414C27.3908 13.0519 25.889 12.7497 24.3744 12.7497C22.8599 12.7497 21.358 13.052 19.954 13.6414C18.5497 14.231 17.2682 15.0974 16.1848 16.1955C15.1011 17.2939 14.2371 18.6024 13.6461 20.0486C13.055 21.495 12.7497 23.0481 12.7497 24.6186V44.6239C12.7497 48.1447 9.89558 50.9988 6.37485 50.9988C2.85412 50.9988 0 48.1447 0 44.6239V24.6186C0 21.3974 0.625854 18.2059 1.84389 15.2254C3.06199 12.2448 4.84962 9.53094 7.10884 7.24108C9.36824 4.95103 12.0552 3.12984 15.0186 1.88572Z" fill="white"/>
<path fill-rule="evenodd" clip-rule="evenodd" d="M51.7307 49.1143C48.7671 50.3585 45.5877 51 42.3748 51C39.1619 51 35.9825 50.3585 33.019 49.1143C30.0556 47.8702 27.3686 46.049 25.1092 43.7589C22.85 41.4691 21.0624 38.7553 19.8443 35.7746C18.6262 32.7941 18.0004 29.6026 18.0004 26.3814C18.0004 22.8607 20.8545 20.0066 24.3752 20.0066C27.896 20.0066 30.7501 22.8607 30.7501 26.3814C30.7501 27.9519 31.0554 29.505 31.6465 30.9514C32.2375 32.3976 33.1015 33.7061 34.1852 34.8045C35.2686 35.9026 36.5501 36.769 37.9544 37.3586C39.3584 37.948 40.8602 38.2503 42.3748 38.2503C43.8894 38.2503 45.3912 37.948 46.7952 37.3586C48.1995 36.769 49.481 35.9026 50.5645 34.8045C51.6481 33.7061 52.5121 32.3976 53.1032 30.9514C53.6943 29.505 53.9995 27.9519 53.9995 26.3814L53.9995 6.37606C53.9995 2.85533 56.8537 0.00120839 60.3744 0.0012087C63.8951 0.00120901 66.7492 2.85533 66.7492 6.37606L66.7492 26.3814C66.7492 29.6026 66.1234 32.7941 64.9053 35.7746C63.6872 38.7552 61.8996 41.4691 59.6404 43.7589C57.381 46.049 54.694 47.8702 51.7307 49.1143Z" fill="white"/>
</svg>
